<?xml version="1.0" encoding="iso-8859-1"?>
<!-- Generator: Adobe Illustrator 19.0.0, SVG Export Plug-In . SVG Version: 6.00 Build 0)  -->
<svg version="1.1" id="Layer_1" xmlns="http://www.w3.org/2000/svg" xmlns:xlink="http://www.w3.org/1999/xlink" x="0px" y="0px"
	 viewBox="0 0 512 512" style="enable-background:new 0 0 512 512;" xml:space="preserve">
<g>
	<g>
		<path d="M116.364,346.346H46.545v-69.818c0-12.853-10.42-23.273-23.273-23.273C10.42,253.255,0,263.675,0,276.528v93.091v93.091
			c0,12.853,10.42,23.273,23.273,23.273c12.853,0,23.273-10.42,23.273-23.273v-69.818h46.545v69.818
			c0,12.853,10.42,23.273,23.273,23.273s23.273-10.42,23.273-23.273v-93.091C139.636,356.766,129.216,346.346,116.364,346.346z"/>
	</g>
</g>
<g>
	<g>
		<path d="M488.727,253.255c-12.853,0-23.273,10.42-23.273,23.273v69.818h-69.818c-12.853,0-23.273,10.42-23.273,23.273v93.091
			c0,12.853,10.42,23.273,23.273,23.273c12.853,0,23.273-10.42,23.273-23.273v-69.818h46.545v69.818
			c0,12.853,10.42,23.273,23.273,23.273c12.853,0,23.273-10.42,23.273-23.273v-93.091v-93.091
			C512,263.675,501.58,253.255,488.727,253.255z"/>
	</g>
</g>
<g>
	<g>
		<path d="M507.012,170.946c-25.037-43.259-61.013-79.542-104.043-104.921c-44.373-26.173-95.193-40.007-146.97-40.007
			c-51.777,0-102.599,13.835-146.972,40.007C65.998,91.406,30.022,127.687,4.988,170.947c-4.166,7.201-4.174,16.077-0.019,23.284
			c4.155,7.207,11.843,11.646,20.16,11.646h207.597v62.894h-54.303c-12.853,0-23.273,10.42-23.273,23.273
			c0,12.853,10.42,23.273,23.273,23.273h54.303V462.71c0,12.853,10.42,23.273,23.273,23.273c12.853,0,23.273-10.42,23.273-23.273
			V315.316h54.303c12.853,0,23.273-10.42,23.273-23.273c0-12.853-10.42-23.273-23.273-23.273h-54.303v-62.894H486.87
			c8.318,0,16.004-4.439,20.16-11.646C511.187,187.023,511.179,178.147,507.012,170.946z"/>
	</g>
</g>
<g>
</g>
<g>
</g>
<g>
</g>
<g>
</g>
<g>
</g>
<g>
</g>
<g>
</g>
<g>
</g>
<g>
</g>
<g>
</g>
<g>
</g>
<g>
</g>
<g>
</g>
<g>
</g>
<g>
</g>
</svg>
