<?xml version="1.0" encoding="iso-8859-1"?>
<!-- Generator: Adobe Illustrator 19.0.0, SVG Export Plug-In . SVG Version: 6.00 Build 0)  -->
<svg version="1.1" id="Layer_1" xmlns="http://www.w3.org/2000/svg" xmlns:xlink="http://www.w3.org/1999/xlink" x="0px" y="0px"
	 viewBox="0 0 512 512" style="enable-background:new 0 0 512 512;" xml:space="preserve">
<g>
	<g>
		<path d="M392.751,113.5c-26.562-48.239-77.9-81-136.751-81s-110.189,32.761-136.751,81H0v366h512v-366H392.751z M156.4,449.5H130
			v-246h26.4V449.5z M212.8,449.5h-26.4v-246h26.4V449.5z M213.58,173.5h-82.684c2.804-23.527,12.108-45.087,26.072-62.818
			l58.43,58.428C214.716,170.533,214.112,171.999,213.58,173.5z M178.182,89.468C195.913,75.505,217.473,66.2,241,63.396v82.684
			c-1.5,0.532-2.967,1.135-4.389,1.817L178.182,89.468z M269.2,449.5h-26.4V231.521c4.176,1.284,8.608,1.979,13.2,1.979
			s9.024-0.695,13.2-1.979V449.5z M256,203.5c-8.271,0-15-6.729-15-15s6.729-15,15-15s15,6.729,15,15S264.271,203.5,256,203.5z
			 M271,146.08V63.396c23.527,2.804,45.087,12.108,62.818,26.072l-58.429,58.429C273.966,147.215,272.5,146.612,271,146.08z
			 M298.42,173.5c-0.532-1.5-1.136-2.967-1.818-4.39l58.429-58.429c13.964,17.732,23.269,39.292,26.072,62.818H298.42V173.5z
			 M325.6,449.5h-26.4v-246h26.4V449.5z M382,449.5h-26.4v-246H382V449.5z"/>
	</g>
</g>
<g>
</g>
<g>
</g>
<g>
</g>
<g>
</g>
<g>
</g>
<g>
</g>
<g>
</g>
<g>
</g>
<g>
</g>
<g>
</g>
<g>
</g>
<g>
</g>
<g>
</g>
<g>
</g>
<g>
</g>
</svg>
