<?xml version="1.0" encoding="iso-8859-1"?>
<!-- Generator: Adobe Illustrator 19.0.0, SVG Export Plug-In . SVG Version: 6.00 Build 0)  -->
<svg version="1.1" id="Layer_1" xmlns="http://www.w3.org/2000/svg" xmlns:xlink="http://www.w3.org/1999/xlink" x="0px" y="0px"
	 viewBox="0 0 512 512" style="enable-background:new 0 0 512 512;" xml:space="preserve">
<g>
	<g>
		<path d="M473.043,414.903V50.087C473.043,22.468,450.576,0,422.957,0C302.127,0,209.873,0,89.044,0
			C61.424,0,38.957,22.468,38.957,50.087v364.816c-19.391,6.914-33.391,25.274-33.391,47.01v33.391
			c0,9.223,7.479,16.696,16.696,16.696h467.478c9.217,0,16.696-7.473,16.696-16.696v-33.391
			C506.435,440.176,492.435,421.817,473.043,414.903z M372.87,33.391c0,16.719-3.37,51.054,27.826,78.915
			c6.901,6.122,7.457,16.696,1.336,23.597c-6.093,6.702-16.319,7.61-23.597,1.336c-33.963-30.598-38.956-63.935-38.956-103.847
			H372.87z M272.696,165.225c26.582,42.244,67.193,74.709,115.371,90.734c-29.371,21.249-48.589,55.71-48.589,94.65v61.217h-66.783
			V165.225z M239.304,165.225v246.602h-66.783v-61.217c0-38.94-19.218-73.401-48.589-94.651
			C172.111,239.933,212.723,207.469,239.304,165.225z M111.304,112.306c30.828-27.532,27.826-61.166,27.826-78.915h33.391
			c0,17.502,4.029,65.121-38.956,103.847c-7.277,6.274-17.504,5.366-23.597-1.336C103.847,129.002,104.404,118.428,111.304,112.306z
			 M473.043,478.609H38.957v-16.696c0-9.206,7.49-16.696,16.696-16.696c144.996,0,255.699,0,400.696,0
			c9.206,0,16.696,7.49,16.696,16.696V478.609z"/>
	</g>
</g>
<g>
</g>
<g>
</g>
<g>
</g>
<g>
</g>
<g>
</g>
<g>
</g>
<g>
</g>
<g>
</g>
<g>
</g>
<g>
</g>
<g>
</g>
<g>
</g>
<g>
</g>
<g>
</g>
<g>
</g>
</svg>
