<?xml version="1.0" encoding="iso-8859-1"?>
<!-- Generator: Adobe Illustrator 19.0.0, SVG Export Plug-In . SVG Version: 6.00 Build 0)  -->
<svg version="1.1" id="Layer_1" xmlns="http://www.w3.org/2000/svg" xmlns:xlink="http://www.w3.org/1999/xlink" x="0px" y="0px"
	 viewBox="0 0 503.607 503.607" style="enable-background:new 0 0 503.607 503.607;" xml:space="preserve">
<g>
	<g>
		<g>
			<rect x="50.362" y="360.914" width="402.885" height="33.574"/>
			<rect x="50.362" y="209.832" width="402.885" height="33.574"/>
			<rect x="50.362" y="260.193" width="402.885" height="33.574"/>
			<rect x="50.362" y="310.553" width="402.885" height="33.574"/>
			<rect x="50.362" y="411.274" width="402.885" height="50.361"/>
			<path d="M495.213,41.967H8.393C3.752,41.967,0,45.719,0,50.361v402.885c0,4.642,3.752,8.393,8.393,8.393h25.18v-58.754v-50.361
				v-50.361v-50.361v-50.361c0-4.642,3.752-8.393,8.393-8.393h419.672c4.642,0,8.393,3.752,8.393,8.393v50.361v50.361v50.361v50.361
				v58.754h25.18c4.642,0,8.393-3.752,8.393-8.393V50.361C503.607,45.719,499.855,41.967,495.213,41.967z M235.016,167.869
				c0,4.642-3.752,8.393-8.393,8.393H41.967c-4.642,0-8.393-3.752-8.393-8.393v-37.527c0-3.106,1.712-5.951,4.448-7.411
				c59.09-31.45,122.553-47.389,188.601-47.389c4.642,0,8.393,3.752,8.393,8.393V167.869z M470.033,167.869
				c0,4.642-3.752,8.393-8.393,8.393H276.984c-4.642,0-8.393-3.752-8.393-8.393V83.934c0-4.642,3.752-8.393,8.393-8.393
				c66.048,0,129.511,15.939,188.601,47.389c2.736,1.461,4.449,4.306,4.449,7.411V167.869z"/>
			<path d="M285.377,159.475h167.869V135.42c-52.854-27.295-109.266-41.749-167.869-43V159.475z"/>
			<path d="M50.361,159.475h167.869V92.42c-58.603,1.251-115.015,15.704-167.869,43V159.475z"/>
		</g>
	</g>
</g>
<g>
</g>
<g>
</g>
<g>
</g>
<g>
</g>
<g>
</g>
<g>
</g>
<g>
</g>
<g>
</g>
<g>
</g>
<g>
</g>
<g>
</g>
<g>
</g>
<g>
</g>
<g>
</g>
<g>
</g>
</svg>
