<?xml version="1.0" encoding="iso-8859-1"?>
<!-- Generator: Adobe Illustrator 18.0.0, SVG Export Plug-In . SVG Version: 6.00 Build 0)  -->
<!DOCTYPE svg PUBLIC "-//W3C//DTD SVG 1.1//EN" "http://www.w3.org/Graphics/SVG/1.1/DTD/svg11.dtd">
<svg version="1.1" id="Capa_1" xmlns="http://www.w3.org/2000/svg" xmlns:xlink="http://www.w3.org/1999/xlink" x="0px" y="0px"
	 viewBox="0 0 60 60" style="enable-background:new 0 0 60 60;" xml:space="preserve">
<g>
	<path d="M60,6V0H0v6h2v48H0v6h60v-6h-2V6H60z M56,54H4V6h52V54z"/>
	<path d="M29,8H6v21h23V8z M9.293,15.293l4-4c0.391-0.391,1.023-0.391,1.414,0s0.391,1.023,0,1.414l-4,4
		C10.512,16.902,10.256,17,10,17s-0.512-0.098-0.707-0.293C8.902,16.316,8.902,15.684,9.293,15.293z M12.707,19.707l-2,2
		C10.512,21.902,10.256,22,10,22s-0.512-0.098-0.707-0.293c-0.391-0.391-0.391-1.023,0-1.414l2-2c0.391-0.391,1.023-0.391,1.414,0
		S13.098,19.316,12.707,19.707z M14.71,17.71C14.52,17.89,14.26,18,14,18c-0.26,0-0.52-0.11-0.71-0.29C13.11,17.52,13,17.26,13,17
		s0.11-0.521,0.29-0.71c0.38-0.37,1.04-0.37,1.42,0C14.89,16.479,15,16.74,15,17S14.89,17.52,14.71,17.71z M19.707,12.707l-3,3
		C16.512,15.902,16.256,16,16,16s-0.512-0.098-0.707-0.293c-0.391-0.391-0.391-1.023,0-1.414l3-3c0.391-0.391,1.023-0.391,1.414,0
		S20.098,12.316,19.707,12.707z"/>
	<path d="M54,8H31v21h23V8z M34.293,15.293l4-4c0.391-0.391,1.023-0.391,1.414,0s0.391,1.023,0,1.414l-4,4
		C35.512,16.902,35.256,17,35,17s-0.512-0.098-0.707-0.293C33.902,16.316,33.902,15.684,34.293,15.293z M37.707,19.707l-2,2
		C35.512,21.902,35.256,22,35,22s-0.512-0.098-0.707-0.293c-0.391-0.391-0.391-1.023,0-1.414l2-2c0.391-0.391,1.023-0.391,1.414,0
		S38.098,19.316,37.707,19.707z M39.71,17.71C39.52,17.89,39.26,18,39,18c-0.26,0-0.52-0.11-0.71-0.29C38.11,17.52,38,17.26,38,17
		s0.11-0.521,0.29-0.71c0.38-0.37,1.04-0.37,1.42,0C39.89,16.479,40,16.74,40,17S39.89,17.52,39.71,17.71z M44.707,12.707l-3,3
		C41.512,15.902,41.256,16,41,16s-0.512-0.098-0.707-0.293c-0.391-0.391-0.391-1.023,0-1.414l3-3c0.391-0.391,1.023-0.391,1.414,0
		S45.098,12.316,44.707,12.707z"/>
	<path d="M29,31H6v21h23V31z M9.293,38.293l4-4c0.391-0.391,1.023-0.391,1.414,0s0.391,1.023,0,1.414l-4,4
		C10.512,39.902,10.256,40,10,40s-0.512-0.098-0.707-0.293C8.902,39.316,8.902,38.684,9.293,38.293z M12.707,42.707l-2,2
		C10.512,44.902,10.256,45,10,45s-0.512-0.098-0.707-0.293c-0.391-0.391-0.391-1.023,0-1.414l2-2c0.391-0.391,1.023-0.391,1.414,0
		S13.098,42.316,12.707,42.707z M14.71,40.71C14.52,40.89,14.26,41,14,41c-0.26,0-0.52-0.11-0.71-0.29C13.11,40.52,13,40.26,13,40
		s0.11-0.521,0.29-0.71c0.38-0.37,1.04-0.37,1.42,0C14.89,39.479,15,39.74,15,40S14.89,40.52,14.71,40.71z M19.707,35.707l-3,3
		C16.512,38.902,16.256,39,16,39s-0.512-0.098-0.707-0.293c-0.391-0.391-0.391-1.023,0-1.414l3-3c0.391-0.391,1.023-0.391,1.414,0
		S20.098,35.316,19.707,35.707z"/>
	<path d="M54,31H31v21h23V31z M34.293,38.293l4-4c0.391-0.391,1.023-0.391,1.414,0s0.391,1.023,0,1.414l-4,4
		C35.512,39.902,35.256,40,35,40s-0.512-0.098-0.707-0.293C33.902,39.316,33.902,38.684,34.293,38.293z M37.707,42.707l-2,2
		C35.512,44.902,35.256,45,35,45s-0.512-0.098-0.707-0.293c-0.391-0.391-0.391-1.023,0-1.414l2-2c0.391-0.391,1.023-0.391,1.414,0
		S38.098,42.316,37.707,42.707z M39.71,40.71C39.52,40.89,39.26,41,39,41c-0.26,0-0.52-0.11-0.71-0.29C38.11,40.52,38,40.26,38,40
		s0.11-0.521,0.29-0.71c0.38-0.37,1.04-0.37,1.42,0C39.89,39.479,40,39.74,40,40S39.89,40.52,39.71,40.71z M44.707,35.707l-3,3
		C41.512,38.902,41.256,39,41,39s-0.512-0.098-0.707-0.293c-0.391-0.391-0.391-1.023,0-1.414l3-3c0.391-0.391,1.023-0.391,1.414,0
		S45.098,35.316,44.707,35.707z"/>
</g>
<g>
</g>
<g>
</g>
<g>
</g>
<g>
</g>
<g>
</g>
<g>
</g>
<g>
</g>
<g>
</g>
<g>
</g>
<g>
</g>
<g>
</g>
<g>
</g>
<g>
</g>
<g>
</g>
<g>
</g>
</svg>
