<!-- Generated by IcoMoon.io -->
<svg version="1.1" xmlns="http://www.w3.org/2000/svg" width="32" height="32" viewBox="0 0 32 32">
<title>preloader</title>
<!--<path fill="#086402" d="M16 0c-8.837 0-16 7.163-16 16s7.163 16 16 16 16-7.163 16-16-7.163-16-16-16zM16 8c4.418 0 8 3.582 8 8s-3.582 8-8 8-8-3.582-8-8 3.582-8 8-8zM25.546 25.546c-2.55 2.55-5.94 3.954-9.546 3.954s-6.996-1.404-9.546-3.954-3.954-5.94-3.954-9.546c0-3.606 1.404-6.996 3.954-9.546l2.121 2.121c0 0 0 0 0 0-4.094 4.094-4.094 10.755 0 14.849 1.983 1.983 4.62 3.075 7.425 3.075s5.441-1.092 7.425-3.075c4.094-4.094 4.094-10.755 0-14.849l2.121-2.121c2.55 2.55 3.954 5.94 3.954 9.546s-1.404 6.996-3.954 9.546z"></path>-->
<!--    <line stroke-width="5px" x1="8" x2="24" y1="16" y2="16"  stroke="#086402"></line>-->
    <circle cx="16" cy="16" stroke="#086402" stroke-width="1px" r="15" fill="none"></circle>
    <circle cx="16" cy="16" stroke="#086402" stroke-width="1px" r="12" fill="none"></circle>
    <path d="M16 2.5 c6 0 13.5 4.75 13.5 13.5" stroke="#086402" fill="none" stroke-width="3px">
        <animate 
                 attributeName="d"
                 dur="2s"
                 repeatCount="indefinite"
                 keyTimes="0.5;
                           1.5;
                           2"
                 calcMode="linear"
                 values="M16 2.5 c6 -0.25 13.5 4.75 13.5 13.5 c0 6.75 -5.25 13.5 -13.5 13.5;
                         M16 2.5 c-6 -0.25 -13.5 4.75 -13.5 13.5 c0 6.75 5.25 13.5 13.5 13.5;
                         M16 2.5 c-6 0 -13.5 4.75 -13.5 13.5"
                 />
    </path>
<!--
    <path d="M16 2.5 c6 -0.25 13.5 4.75 13.5 13.5 c0 6.75 -5.25 13.5 -13.5 13.5" stroke="rgba(50, 50, 50, 0.5)" fill="none" stroke-width="3px"></path>
    <path d="M16 2.5 c-6 -0.25 -13.5 4.75 -13.5 13.5 c0 6.75 5.25 13.5 13.5 13.5" stroke="rgba(50, 50, 50, 0.5)" fill="none" stroke-width="3px"></path>
    <path d="M16 2.5 c-6 0 -13.5 4.75 -13.5 13.5" stroke="rgba(50, 50, 50, 0.5)" fill="none" stroke-width="3px"></path>
-->
</svg>
